<svg width="20" height="17" viewBox="0 0 20 17" fill="none" xmlns="http://www.w3.org/2000/svg">
<path d="M2.5 1.21429C2.5 0.542634 1.94141 0 1.25 0C0.558594 0 0 0.542634 0 1.21429V13.9643C0 15.6415 1.39844 17 3.125 17H18.75C19.4414 17 20 16.4574 20 15.7857C20 15.1141 19.4414 14.5714 18.75 14.5714H3.125C2.78125 14.5714 2.5 14.2982 2.5 13.9643V1.21429ZM18.3828 4.50045C18.8711 4.02612 18.8711 3.2558 18.3828 2.78147C17.8945 2.30714 17.1016 2.30714 16.6133 2.78147L12.5 6.78103L10.2578 4.6029C9.76953 4.12857 8.97656 4.12857 8.48828 4.6029L4.11328 8.8529C3.625 9.32723 3.625 10.0975 4.11328 10.5719C4.60156 11.0462 5.39453 11.0462 5.88281 10.5719L9.375 7.18326L11.6172 9.36138C12.1055 9.83572 12.8984 9.83572 13.3867 9.36138L18.3867 4.50424L18.3828 4.50045Z" fill="#1C2E51"/>
</svg>
