<svg width="32" height="32" viewBox="0 0 32 32" fill="none" xmlns="http://www.w3.org/2000/svg">
<path d="M22.0007 2.6665V6.6665M10.0007 2.6665V6.6665M16.0007 2.6665V6.6665M10.0007 14.6665L11.334 15.9998L14.0007 12.6665M17.334 22.6665H21.334M17.334 14.6665H21.334M11.3207 22.4892H11.334M17.334 4.6665H14.6673C10.2673 4.6665 8.06732 4.6665 6.70065 6.03317C5.33398 7.39984 5.33398 9.59984 5.33398 13.9998V19.9998C5.33398 24.3998 5.33398 26.5998 6.70065 27.9665C8.06732 29.3332 10.2673 29.3332 14.6673 29.3332H17.334C21.734 29.3332 23.934 29.3332 25.3007 27.9665C26.6673 26.5998 26.6673 24.3998 26.6673 19.9998V13.9998C26.6673 9.59984 26.6673 7.39984 25.3007 6.03317C23.934 4.6665 21.734 4.6665 17.334 4.6665Z" stroke="#727C90" stroke-width="2" stroke-linecap="round" stroke-linejoin="round"/>
</svg>
