<svg width="48" height="48" viewBox="0 0 48 48" fill="none" xmlns="http://www.w3.org/2000/svg">
<rect width="48" height="48" rx="8" fill="#E2E8F0"/>
<path d="M27.3909 16.3901C27.6469 16.6463 28.0214 16.7441 28.3699 16.6458C28.7185 16.5474 28.9866 16.2683 29.0709 15.9161C29.3582 14.7204 30.4724 13.9111 31.6983 14.0078C32.9242 14.1045 33.8978 15.0784 33.9941 16.3044C34.0904 17.5303 33.2807 18.6443 32.0849 18.9311C31.7327 19.0154 31.4536 19.2836 31.3552 19.6321C31.2569 19.9807 31.3547 20.3552 31.6109 20.6111L33.2939 22.2931C33.7467 22.7458 34.001 23.3599 34.001 24.0001C34.001 24.6404 33.7467 25.2544 33.2939 25.7071L31.6109 27.3901C31.355 27.6463 30.9805 27.7441 30.6319 27.6458C30.2834 27.5474 30.0152 27.2683 29.9309 26.9161C29.6437 25.7204 28.5295 24.9111 27.3035 25.0078C26.0776 25.1045 25.104 26.0784 25.0078 27.3044C24.9115 28.5303 25.7211 29.6443 26.9169 29.9311C27.2691 30.0154 27.5483 30.2836 27.6466 30.6321C27.7449 30.9807 27.6471 31.3552 27.3909 31.6111L25.7079 33.2931C25.2552 33.7459 24.6412 34.0002 24.0009 34.0002C23.3607 34.0002 22.7466 33.7459 22.2939 33.2931L20.6109 31.6101C20.355 31.3539 19.9805 31.2561 19.6319 31.3544C19.2834 31.4528 19.0152 31.7319 18.9309 32.0841C18.6437 33.2798 17.5295 34.0891 16.3035 33.9924C15.0776 33.8957 14.104 32.9218 14.0078 31.6959C13.9115 30.4699 14.7211 29.356 15.9169 29.0691C16.2691 28.9848 16.5483 28.7167 16.6466 28.3681C16.7449 28.0196 16.6471 27.6451 16.3909 27.3891L14.7079 25.7071C14.2552 25.2544 14.0008 24.6404 14.0008 24.0001C14.0008 23.3599 14.2552 22.7458 14.7079 22.2931L16.3909 20.6101C16.6469 20.3539 17.0214 20.2561 17.3699 20.3544C17.7185 20.4528 17.9866 20.7319 18.0709 21.0841C18.3582 22.2798 19.4724 23.0891 20.6983 22.9924C21.9242 22.8957 22.8978 21.9218 22.9941 20.6959C23.0904 19.4699 22.2807 18.356 21.0849 18.0691C20.7327 17.9848 20.4536 17.7167 20.3552 17.3681C20.2569 17.0196 20.3547 16.6451 20.6109 16.3891L22.2939 14.7071C22.7466 14.2544 23.3607 14 24.0009 14C24.6412 14 25.2552 14.2544 25.7079 14.7071L27.3909 16.3901" stroke="#0F1724" stroke-width="2" stroke-linecap="round" stroke-linejoin="round"/>
</svg>
