<svg width="48" height="48" viewBox="0 0 48 48" fill="none" xmlns="http://www.w3.org/2000/svg">
<rect width="48" height="48" rx="8" fill="#E2E8F0"/>
<path d="M22.7331 17.0759C27.5203 16.5054 32.1013 19.1936 33.9381 23.6509C34.0215 23.8755 34.0215 24.1224 33.9381 24.3469C33.5701 25.2376 33.0844 26.0751 32.4941 26.8369M26.0841 26.1579C24.907 27.2949 23.0359 27.2786 21.8787 26.1214C20.7215 24.9642 20.7052 23.0931 21.8421 21.9159" stroke="#0F1724" stroke-width="2" stroke-linecap="round" stroke-linejoin="round"/>
<path d="M29.4795 29.499C26.7954 31.0889 23.553 31.4345 20.5941 30.4459C17.6353 29.4573 15.2518 27.2321 14.0625 24.348C13.9792 24.1235 13.9792 23.8765 14.0625 23.652C14.9491 21.5019 16.5092 19.6972 18.5085 18.509M14.0005 14L34.0005 34" stroke="#0F1724" stroke-width="2" stroke-linecap="round" stroke-linejoin="round"/>
</svg>
