<svg width="48" height="48" viewBox="0 0 48 48" fill="none" xmlns="http://www.w3.org/2000/svg">
<rect width="48" height="48" rx="8" fill="#E2E8F0"/>
<path d="M21 14H27C27.5523 14 28 14.4477 28 15V17C28 17.5519 27.5519 18 27 18H21C20.4481 18 20 17.5519 20 17V15C20 14.4481 20.4481 14 21 14V14" stroke="#0F1724" stroke-width="2" stroke-linecap="round" stroke-linejoin="round"/>
<path d="M28 16H30C31.1038 16 32 16.8962 32 18V32C32 33.1038 31.1038 34 30 34H18C16.8962 34 16 33.1038 16 32V18C16 16.8962 16.8962 16 18 16H20M27 23L21 29M21 23L27 29" stroke="#0F1724" stroke-width="2" stroke-linecap="round" stroke-linejoin="round"/>
</svg>
