<svg width="24" height="24" viewBox="0 0 24 24" fill="none" xmlns="http://www.w3.org/2000/svg">
<path d="M11.9991 14.3152C12.6009 14.316 13.1785 14.0777 13.6047 13.6528C14.031 13.2279 14.271 12.6511 14.2721 12.0492C14.2709 11.4474 14.0308 10.8707 13.6045 10.4459C13.1783 10.0211 12.6008 9.7829 11.9991 9.78369C11.3975 9.78303 10.8202 10.0212 10.3941 10.4459C9.96798 10.8706 9.72789 11.4471 9.72656 12.0487C9.72749 12.6506 9.9674 13.2274 10.3936 13.6524C10.8197 14.0775 11.3972 14.3159 11.9991 14.3152Z" fill="#474748" stroke="#474748" stroke-width="2" stroke-linejoin="round"/>
<path d="M7.99975 7.5C5.33325 9.985 5.33325 14.015 7.99975 16.5M15.9998 16.5C18.6663 14.015 18.6663 9.985 15.9998 7.5M4.92875 5C1.02375 8.893 1.02375 15.205 4.92875 19.098M19.0707 19.098C22.9757 15.205 22.9757 8.893 19.0707 5" stroke="#474748" stroke-width="2" stroke-linecap="round" stroke-linejoin="round"/>
</svg>
