<svg width="20" height="20" viewBox="0 0 20 20" fill="none" xmlns="http://www.w3.org/2000/svg">
<path fill-rule="evenodd" clip-rule="evenodd" d="M2.825 9H6.205C6.326 9 6.525 9 6.707 9.016C6.932 9.036 7.316 9.092 7.722 9.319C8.12443 9.54432 8.45668 9.87657 8.682 10.279C8.908 10.684 8.964 11.068 8.984 11.293C9.001 11.476 9 11.674 9 11.795V17.205C9 17.326 9 17.525 8.984 17.707C8.964 17.932 8.909 18.316 8.681 18.722C8.45568 19.1244 8.12343 19.4567 7.721 19.682C7.40842 19.8539 7.06267 19.9568 6.707 19.984C6.524 20 6.326 20 6.205 20H2.795C2.675 20 2.475 20 2.293 19.984C1.93725 19.9565 1.5915 19.8532 1.279 19.681C0.876574 19.4557 0.544321 19.1234 0.319 18.721C0.146796 18.4085 0.0434817 18.0627 0.016 17.707C3.1665e-08 17.524 0 17.326 0 17.205V11.795C0 11.675 3.1665e-08 11.475 0.016 11.293C0.036 11.068 0.092 10.684 0.319 10.279C0.544321 9.87657 0.876574 9.54432 1.279 9.319C1.5915 9.1468 1.93725 9.04348 2.293 9.016C2.476 9 2.674 9 2.795 9H2.825ZM2.064 11.256C2 11.37 2 11.52 2 11.826V17.176C2 17.479 2 17.631 2.064 17.744C2.10906 17.8245 2.17551 17.8909 2.256 17.936C2.37 18 2.521 18 2.825 18H6.175C6.479 18 6.631 18 6.745 17.936C6.82512 17.8908 6.89121 17.8244 6.936 17.744C7 17.631 7 17.48 7 17.175V11.825C7 11.521 7 11.37 6.936 11.255C6.89079 11.1749 6.82435 11.1088 6.744 11.064C6.631 11 6.48 11 6.175 11H2.825C2.521 11 2.37 11 2.255 11.064C2.17488 11.1092 2.10879 11.1756 2.064 11.256ZM2.825 0H6.205C6.326 0 6.525 3.1665e-08 6.707 0.016C6.932 0.036 7.316 0.092 7.722 0.319C8.12443 0.544321 8.45668 0.876574 8.682 1.279C8.908 1.684 8.964 2.068 8.984 2.293C9.001 2.476 9 2.674 9 2.795V5.205C9 5.326 9 5.525 8.984 5.707C8.964 5.932 8.909 6.316 8.681 6.722C8.45568 7.12443 8.12343 7.45668 7.721 7.682C7.40842 7.85386 7.06267 7.95683 6.707 7.984C6.524 8.001 6.326 8 6.205 8H2.795C2.675 8 2.475 8 2.293 7.984C1.93725 7.95652 1.5915 7.8532 1.279 7.681C0.876574 7.45568 0.544321 7.12343 0.319 6.721C0.146796 6.4085 0.0434817 6.06275 0.016 5.707C3.1665e-08 5.524 0 5.326 0 5.205V2.795C0 2.675 3.1665e-08 2.475 0.016 2.293C0.036 2.068 0.092 1.684 0.319 1.279C0.544321 0.876574 0.876574 0.544321 1.279 0.319C1.5915 0.146796 1.93725 0.0434817 2.293 0.016C2.476 3.1665e-08 2.674 0 2.795 0H2.825ZM2.064 2.256C2 2.37 2 2.52 2 2.825V5.175C2 5.479 2 5.631 2.064 5.745C2.10921 5.82512 2.17565 5.89121 2.256 5.936C2.37 6 2.52 6 2.825 6H6.175C6.479 6 6.631 6 6.745 5.936C6.82512 5.89079 6.89121 5.82435 6.936 5.744C7 5.631 7 5.48 7 5.175V2.825C7 2.521 7 2.37 6.936 2.255C6.89079 2.17488 6.82435 2.10879 6.744 2.064C6.631 2 6.48 2 6.175 2H2.825C2.521 2 2.37 2 2.255 2.064C2.17488 2.10921 2.10879 2.17565 2.064 2.256ZM13.825 11H17.205C17.326 11 17.525 11 17.707 10.984C17.932 10.964 18.316 10.909 18.722 10.681C19.1244 10.4557 19.4567 10.1234 19.682 9.721C19.909 9.316 19.964 8.932 19.984 8.707C20 8.524 20 8.326 20 8.205V2.795C20 2.675 20 2.475 19.984 2.293C19.9565 1.93725 19.8532 1.5915 19.681 1.279C19.4557 0.876574 19.1234 0.544321 18.721 0.319C18.4085 0.146796 18.0627 0.0434817 17.707 0.016C17.524 3.1665e-08 17.326 0 17.205 0H13.795C13.675 0 13.475 3.1665e-08 13.293 0.016C13.068 0.036 12.684 0.092 12.279 0.319C11.8766 0.544321 11.5443 0.876574 11.319 1.279C11.1468 1.5915 11.0435 1.93725 11.016 2.293C11 2.476 11 2.674 11 2.795V8.205C11 8.326 11 8.525 11.016 8.707C11.036 8.932 11.092 9.316 11.319 9.722C11.5443 10.1244 11.8766 10.4567 12.279 10.682C12.684 10.908 13.068 10.964 13.293 10.984C13.476 11.001 13.674 11 13.795 11H13.825ZM13.064 8.744C13 8.63 13 8.48 13 8.175V2.825C13 2.521 13 2.37 13.064 2.255C13.1092 2.17488 13.1756 2.10879 13.256 2.064C13.37 2 13.52 2 13.826 2H17.176C17.479 2 17.631 2 17.744 2.064C17.8245 2.10906 17.8909 2.17551 17.936 2.256C18 2.37 18 2.521 18 2.825V8.175C18 8.479 18 8.63 17.936 8.745C17.8908 8.82512 17.8244 8.89121 17.744 8.936C17.631 9 17.479 9 17.175 9H13.825C13.521 9 13.37 9 13.255 8.936C13.1749 8.89079 13.1088 8.82435 13.064 8.744ZM13.825 20H17.205C17.326 20 17.525 20 17.707 19.984C17.932 19.964 18.316 19.908 18.722 19.681C19.1244 19.4557 19.4567 19.1234 19.682 18.721C19.909 18.316 19.964 17.932 19.984 17.707C20 17.524 20 17.326 20 17.205V14.795C20 14.675 20 14.475 19.984 14.293C19.9565 13.9372 19.8532 13.5915 19.681 13.279C19.4557 12.8766 19.1234 12.5443 18.721 12.319C18.4085 12.1468 18.0627 12.0435 17.707 12.016C17.524 12 17.326 12 17.205 12H13.795C13.675 12 13.475 12 13.293 12.016C13.068 12.036 12.684 12.092 12.279 12.319C11.8766 12.5443 11.5443 12.8766 11.319 13.279C11.1468 13.5915 11.0435 13.9372 11.016 14.293C11 14.476 11 14.674 11 14.795V17.205C11 17.326 11 17.525 11.016 17.707C11.036 17.932 11.092 18.316 11.319 18.722C11.5443 19.1244 11.8766 19.4567 12.279 19.682C12.684 19.909 13.068 19.964 13.293 19.984C13.476 20 13.674 20 13.795 20H13.825ZM13.064 17.744C13 17.631 13 17.48 13 17.175V14.825C13 14.521 13 14.37 13.064 14.255C13.1092 14.1749 13.1756 14.1088 13.256 14.064C13.37 14 13.521 14 13.826 14H17.176C17.479 14 17.631 14 17.744 14.064C17.824 14.109 17.891 14.175 17.936 14.256C18 14.37 18 14.521 18 14.826V17.176C18 17.479 18 17.631 17.936 17.744C17.8909 17.8245 17.8245 17.8909 17.744 17.936C17.631 18 17.479 18 17.175 18H13.825C13.521 18 13.37 18 13.255 17.936C13.1749 17.8908 13.1088 17.8244 13.064 17.744Z" fill="#7B3AEC"/>
</svg>
