<svg width="32" height="32" viewBox="0 0 32 32" fill="none" xmlns="http://www.w3.org/2000/svg">
<path d="M21.3327 28V25.3333C21.3327 23.9188 20.7708 22.5623 19.7706 21.5621C18.7704 20.5619 17.4138 20 15.9993 20H7.99935C6.58486 20 5.22831 20.5619 4.22811 21.5621C3.22792 22.5623 2.66602 23.9188 2.66602 25.3333V28M21.3327 4.17067C22.4764 4.46716 23.4892 5.13502 24.2123 6.06942C24.9353 7.00381 25.3276 8.15185 25.3276 9.33333C25.3276 10.5148 24.9353 11.6629 24.2123 12.5972C23.4892 13.5316 22.4764 14.1995 21.3327 14.496M29.3327 28V25.3333C29.3318 24.1516 28.9385 23.0037 28.2145 22.0698C27.4905 21.1358 26.4769 20.4688 25.3327 20.1733M17.3327 9.33333C17.3327 12.2789 14.9449 14.6667 11.9993 14.6667C9.05383 14.6667 6.66602 12.2789 6.66602 9.33333C6.66602 6.38781 9.05383 4 11.9993 4C14.9449 4 17.3327 6.38781 17.3327 9.33333Z" stroke="#727C90" stroke-width="2.5" stroke-linecap="round" stroke-linejoin="round"/>
</svg>
