<svg width="24" height="27" viewBox="0 0 24 27" fill="none" xmlns="http://www.w3.org/2000/svg">
<path fill-rule="evenodd" clip-rule="evenodd" d="M12.0001 4.25C9.94464 4.25 7.97339 5.06652 6.51999 6.51992C5.06658 7.97333 4.25006 9.94457 4.25006 12V12.704C4.25001 13.4009 4.04367 14.0822 3.65706 14.662L2.51006 16.385C1.17606 18.385 2.19406 21.103 4.51306 21.735C5.2684 21.941 6.02973 22.1153 6.79706 22.258L6.79906 22.263C7.56706 24.315 9.62206 25.75 12.0001 25.75C14.3781 25.75 16.4331 24.315 17.2021 22.263L17.2041 22.258C17.9721 22.1145 18.7341 21.94 19.4881 21.735C21.8071 21.103 22.8251 18.385 21.4911 16.385L20.3431 14.662C19.9565 14.0822 19.7501 13.4009 19.7501 12.704V12C19.7501 9.94457 18.9335 7.97333 17.4801 6.51992C16.0267 5.06652 14.0555 4.25 12.0001 4.25ZM15.3761 22.537C13.133 22.8046 10.8661 22.8046 8.62306 22.537C9.33406 23.558 10.5711 24.25 12.0001 24.25C13.4291 24.25 14.6651 23.558 15.3761 22.537ZM5.75006 12C5.75006 10.3424 6.40854 8.75269 7.58065 7.58058C8.75275 6.40848 10.3425 5.75 12.0001 5.75C13.6577 5.75 15.2474 6.40848 16.4195 7.58058C17.5916 8.75269 18.2501 10.3424 18.2501 12V12.704C18.2501 13.697 18.5441 14.668 19.0951 15.494L20.2431 17.217C20.421 17.4834 20.5329 17.7883 20.5698 18.1065C20.6066 18.4247 20.5672 18.7471 20.4549 19.0471C20.3425 19.3471 20.1605 19.6161 19.9237 19.8319C19.6869 20.0476 19.4022 20.204 19.0931 20.288C14.4489 21.5546 9.55026 21.5546 4.90606 20.288C4.5971 20.2039 4.31255 20.0476 4.07589 19.8319C3.83922 19.6162 3.65722 19.3473 3.5449 19.0475C3.43257 18.7476 3.39314 18.4254 3.42986 18.1073C3.46657 17.7892 3.57838 17.4844 3.75606 17.218L4.90606 15.494C5.4566 14.6677 5.75027 13.6969 5.75006 12.704V12Z" fill="#474747"/>
<circle cx="18" cy="6" r="6" fill="#F44336"/>
</svg>
