<svg width="12" height="12" viewBox="0 0 12 12" fill="none" xmlns="http://www.w3.org/2000/svg">
<path d="M11.7044 5.28721L6.70856 0.285132C6.61354 0.194054 6.50149 0.122659 6.37883 0.0750447C6.13557 -0.0250149 5.86272 -0.0250149 5.61946 0.0750447C5.49681 0.122659 5.38476 0.194054 5.28973 0.285132L0.29385 5.28721C0.200688 5.38049 0.126788 5.49122 0.0763693 5.6131C0.0259505 5.73497 0 5.86559 0 5.99751C0 6.26392 0.105701 6.51942 0.29385 6.7078C0.481998 6.89618 0.737183 7.00201 1.00326 7.00201C1.26935 7.00201 1.52453 6.89618 1.71268 6.7078L4.99997 3.40643V10.9996C4.99997 11.2649 5.10524 11.5194 5.29262 11.707C5.48001 11.8946 5.73415 12 5.99915 12C6.26415 12 6.51829 11.8946 6.70567 11.707C6.89305 11.5194 6.99832 11.2649 6.99832 10.9996V3.40643L10.2856 6.7078C10.3785 6.80157 10.489 6.87599 10.6108 6.92678C10.7325 6.97757 10.8631 7.00372 10.995 7.00372C11.1269 7.00372 11.2575 6.97757 11.3793 6.92678C11.501 6.87599 11.6116 6.80157 11.7044 6.7078C11.7981 6.6148 11.8724 6.50415 11.9232 6.38224C11.9739 6.26033 12 6.12957 12 5.99751C12 5.86544 11.9739 5.73468 11.9232 5.61277C11.8724 5.49086 11.7981 5.38021 11.7044 5.28721Z" fill="#008E2D"/>
</svg>
