<svg width="12" height="12" viewBox="0 0 12 12" fill="none" xmlns="http://www.w3.org/2000/svg">
<path d="M11.7141 5.29C11.6211 5.19627 11.5105 5.12188 11.3887 5.07111C11.2668 5.02034 11.1361 4.9942 11.0041 4.9942C10.8721 4.9942 10.7414 5.02034 10.6195 5.07111C10.4977 5.12188 10.3871 5.19627 10.2941 5.29L7.00409 8.59V1C7.00409 0.734784 6.89873 0.48043 6.7112 0.292893C6.52366 0.105357 6.26931 0 6.00409 0C5.73888 0 5.48452 0.105357 5.29699 0.292893C5.10945 0.48043 5.00409 0.734784 5.00409 1V8.59L1.71409 5.29C1.52579 5.1017 1.27039 4.99591 1.00409 4.99591C0.73779 4.99591 0.482395 5.1017 0.294092 5.29C0.105788 5.4783 0 5.7337 0 6C0 6.2663 0.105788 6.5217 0.294092 6.71L5.29409 11.71C5.3892 11.801 5.50134 11.8724 5.62409 11.92C5.74379 11.9729 5.87322 12.0002 6.00409 12.0002C6.13496 12.0002 6.26439 11.9729 6.38409 11.92C6.50684 11.8724 6.61899 11.801 6.71409 11.71L11.7141 6.71C11.8078 6.61704 11.8822 6.50644 11.933 6.38458C11.9838 6.26272 12.0099 6.13201 12.0099 6C12.0099 5.86799 11.9838 5.73728 11.933 5.61542C11.8822 5.49356 11.8078 5.38296 11.7141 5.29Z" fill="#C46800"/>
</svg>
