<svg width="24" height="24" viewBox="0 0 24 24" fill="none" xmlns="http://www.w3.org/2000/svg">
<path fill-rule="evenodd" clip-rule="evenodd" d="M12.2593 2.94777C12.2701 3.07879 12.255 3.21065 12.2148 3.33582C12.1746 3.46098 12.1101 3.57699 12.025 3.67721C11.9399 3.77742 11.8359 3.85988 11.7189 3.91987C11.602 3.97985 11.4743 4.01618 11.3433 4.02677C9.8605 4.14884 8.44115 4.68198 7.24468 5.56628C6.04821 6.45058 5.12205 7.65101 4.57024 9.03269C4.01844 10.4144 3.86285 11.9225 4.12098 13.3878C4.37911 14.853 5.04071 16.2172 6.03146 17.3271C7.0222 18.4371 8.30283 19.2487 9.72946 19.6709C11.1561 20.0931 12.6722 20.1091 14.1074 19.7171C15.5426 19.3252 16.8401 18.5407 17.8541 17.4519C18.868 16.3632 19.5583 15.0132 19.8473 13.5538C19.8728 13.4249 19.9235 13.3024 19.9964 13.1932C20.0693 13.0839 20.163 12.9901 20.2721 12.9171C20.3813 12.844 20.5038 12.7932 20.6326 12.7675C20.7614 12.7418 20.894 12.7417 21.0228 12.7673C21.1516 12.7928 21.2741 12.8435 21.3834 12.9164C21.4926 12.9893 21.5865 13.083 21.6595 13.1921C21.7325 13.3013 21.7833 13.4238 21.809 13.5526C21.8347 13.6814 21.8348 13.8139 21.8093 13.9428C21.4478 15.767 20.5848 17.4542 19.3173 18.815C18.0497 20.1758 16.4278 21.1562 14.6338 21.646C12.8398 22.1358 10.9448 22.1156 9.16157 21.5877C7.37839 21.0599 5.77772 20.0453 4.5394 18.6578C3.30109 17.2704 2.47419 15.5652 2.1516 13.7337C1.82902 11.9022 2.02353 10.017 2.71328 8.29002C3.40304 6.56299 4.56071 5.06252 6.05624 3.95717C7.55176 2.85183 9.32588 2.1854 11.1793 2.03277C11.3103 2.02182 11.4422 2.03681 11.5674 2.07688C11.6926 2.11695 11.8087 2.18133 11.909 2.26631C12.0093 2.3513 12.0919 2.45523 12.152 2.57217C12.2121 2.6891 12.2486 2.81674 12.2593 2.94777Z" fill="#1C2E51"/>
<path fill-rule="evenodd" clip-rule="evenodd" d="M11.1287 6.97595C11.2243 7.22327 11.2177 7.49841 11.1104 7.74087C11.0032 7.98334 10.804 8.17329 10.5567 8.26895C9.96254 8.49908 9.43194 8.86782 9.00909 9.34448C8.58624 9.82114 8.28338 10.3919 8.12573 11.0093C7.96808 11.6267 7.9602 12.2728 8.10274 12.8938C8.24529 13.5148 8.53414 14.0928 8.94523 14.5797C9.35633 15.0665 9.87778 15.4481 10.4662 15.6926C11.0546 15.9372 11.6929 16.0376 12.3279 15.9856C12.963 15.9336 13.5764 15.7306 14.1172 15.3936C14.6579 15.0565 15.1103 14.5952 15.4367 14.048C15.5019 13.9311 15.5898 13.8286 15.6953 13.7464C15.8008 13.6642 15.9217 13.604 16.0509 13.5693C16.1801 13.5346 16.3149 13.5263 16.4474 13.5446C16.5799 13.563 16.7073 13.6078 16.8222 13.6763C16.9371 13.7448 17.0371 13.8357 17.1162 13.9435C17.1953 14.0513 17.252 14.1739 17.2829 14.3041C17.3138 14.4342 17.3183 14.5692 17.2961 14.7011C17.2739 14.833 17.2255 14.9591 17.1537 15.0719C16.6642 15.893 15.9857 16.5853 15.1745 17.091C14.3633 17.5968 13.4431 17.9014 12.4904 17.9795C11.5377 18.0577 10.5801 17.907 9.69736 17.5402C8.81464 17.1733 8.03236 16.6009 7.41565 15.8705C6.79895 15.1401 6.36568 14.273 6.15193 13.3413C5.93818 12.4096 5.95013 11.4403 6.1868 10.5141C6.42347 9.58798 6.87799 8.73178 7.51252 8.01684C8.14705 7.3019 8.94322 6.74892 9.83472 6.40395C9.95724 6.35649 10.0879 6.33363 10.2193 6.3367C10.3506 6.33976 10.4801 6.36868 10.6002 6.4218C10.7204 6.47492 10.8289 6.5512 10.9196 6.64629C11.0103 6.74137 11.0814 6.85339 11.1287 6.97595Z" fill="#1C2E51"/>
<path fill-rule="evenodd" clip-rule="evenodd" d="M16.2601 8.34958C16.3454 8.44938 16.4103 8.56502 16.451 8.6899C16.4916 8.81477 16.5073 8.94643 16.4971 9.07737C16.4869 9.2083 16.451 9.33594 16.3914 9.45299C16.3319 9.57005 16.2499 9.67423 16.15 9.75958L12.65 12.7596C12.5502 12.8449 12.4346 12.9098 12.3097 12.9505C12.1849 12.9911 12.0532 13.0068 11.9223 12.9966C11.7913 12.9864 11.6637 12.9505 11.5466 12.8909C11.4296 12.8314 11.3254 12.7494 11.24 12.6496C11.1547 12.5498 11.0898 12.4341 11.0492 12.3093C11.0085 12.1844 10.9928 12.0527 11.003 11.9218C11.0132 11.7909 11.0491 11.6632 11.1087 11.5462C11.1682 11.4291 11.2502 11.3249 11.3501 11.2396L14.8501 8.23958C14.9499 8.15422 15.0655 8.08935 15.1904 8.04867C15.3152 8.008 15.4469 7.99233 15.5778 8.00254C15.7088 8.01276 15.8364 8.04866 15.9535 8.10821C16.0705 8.16775 16.1747 8.24977 16.2601 8.34958Z" fill="#1C2E51"/>
<path d="M11.5 11C11.697 11 11.892 11.0388 12.074 11.1142C12.256 11.1896 12.4214 11.3001 12.5607 11.4393C12.6999 11.5786 12.8104 11.744 12.8858 11.926C12.9612 12.108 13 12.303 13 12.5C13 12.697 12.9612 12.892 12.8858 13.074C12.8104 13.256 12.6999 13.4214 12.5607 13.5607C12.4214 13.6999 12.256 13.8104 12.074 13.8858C11.892 13.9612 11.697 14 11.5 14C11.1022 14 10.7206 13.842 10.4393 13.5607C10.158 13.2794 10 12.8978 10 12.5C10 12.1022 10.158 11.7206 10.4393 11.4393C10.7206 11.158 11.1022 11 11.5 11Z" fill="#1C2E51"/>
<path fill-rule="evenodd" clip-rule="evenodd" d="M16.6257 8.01662L17.6807 8.49262L18.1867 8.13162C17.8952 7.9502 17.6425 7.71284 17.4433 7.43324C17.244 7.15365 17.1021 6.83735 17.0257 6.50262L16.5197 6.86362L16.6257 8.01662ZM17.7027 3.56362C17.7859 3.50426 17.883 3.46716 17.9846 3.45584C18.0862 3.44452 18.189 3.45934 18.2833 3.49891C18.3775 3.53848 18.4601 3.60148 18.5232 3.68194C18.5863 3.76239 18.6277 3.85763 18.6437 3.95862L18.9677 6.01662C18.9821 6.10859 19.0177 6.19596 19.0716 6.2718C19.1256 6.34765 19.1965 6.4099 19.2787 6.45362L21.1187 7.42962C21.209 7.4775 21.2855 7.54765 21.3411 7.63342C21.3966 7.71918 21.4294 7.81772 21.4362 7.91968C21.443 8.02164 21.4237 8.12366 21.38 8.21605C21.3363 8.30844 21.2698 8.38815 21.1867 8.44762L18.1867 10.5876C18.1013 10.6486 18.0015 10.6862 17.8971 10.6965C17.7927 10.7069 17.6874 10.6897 17.5917 10.6466L15.0597 9.50462C14.9629 9.461 14.8794 9.39248 14.8177 9.30604C14.756 9.2196 14.7184 9.11835 14.7087 9.01262L14.4537 6.24662C14.4441 6.14199 14.4621 6.03668 14.506 5.94121C14.5499 5.84574 14.618 5.76347 14.7037 5.70262L17.7027 3.56362Z" fill="#1C2E51"/>
</svg>
